<svg aria-hidden="true" style="width:0;height:0;position:absolute;overflow:hidden" xmlns="http://www.w3.org/2000/svg"><defs><symbol id="icon-sun-solid" viewBox="0 0 32 32"><path d="M22.594.075c.313.131.538.412.6.744l1.244 6.744 6.744 1.238c.331.063.613.287.744.6s.094.669-.1.95l-3.894 5.65 3.894 5.644c.194.281.231.637.1.95s-.413.538-.744.6l-6.744 1.244-1.244 6.744c-.063.331-.288.613-.6.744s-.669.094-.95-.1L16 27.933l-5.644 3.894c-.281.194-.637.231-.95.1s-.537-.413-.6-.744l-1.244-6.744-6.744-1.244c-.331-.063-.613-.288-.744-.6s-.094-.669.1-.95l3.894-5.644-3.894-5.644c-.194-.281-.231-.637-.1-.95s.412-.537.744-.6l6.744-1.244L8.806.819c.063-.331.287-.613.6-.744s.669-.094.95.1L16 4.069 21.644.175a.993.993 0 0 1 .95-.1zM22 16c0 3.313-2.688 6-6 6s-6-2.688-6-6 2.688-6 6-6 6 2.688 6 6zm2 0c0-4.419-3.581-8-8-8s-8 3.581-8 8 3.581 8 8 8 8-3.581 8-8z"/></symbol><symbol id="icon-sun-regular" viewBox="0 0 32 32"><path d="m31.575 20.3-2.983-4.299 2.984-4.301c.46-.664.55-1.508.24-2.254a2.357 2.357 0 0 0-1.764-1.42l-5.149-.93-.931-5.151A2.353 2.353 0 0 0 22.554.181a2.374 2.374 0 0 0-2.258.24l-4.297 2.983-4.3-2.986A2.371 2.371 0 0 0 9.443.18a2.359 2.359 0 0 0-1.419 1.762l-.931 5.152-5.147.93A2.355 2.355 0 0 0 .18 9.449a2.35 2.35 0 0 0 .242 2.25l2.983 4.299-2.984 4.301a2.357 2.357 0 0 0-.24 2.254c.311.746.97 1.277 1.764 1.42l5.149.93.931 5.151a2.366 2.366 0 0 0 3.675 1.524l4.3-2.983 4.302 2.986c.404.276.873.42 1.342.42a2.359 2.359 0 0 0 2.329-1.944l.931-5.152 5.148-.93a2.354 2.354 0 0 0 1.766-1.422 2.335 2.335 0 0 0-.242-2.252zm-3.025.9-6.226 1.125-1.125 6.227L16 24.944l-5.2 3.606-1.125-6.227-6.226-1.125 3.607-5.254L3.452 10.8l6.226-1.125 1.125-6.227L16 7.056l5.197-3.609 1.126 6.229 6.226 1.125-3.605 5.143L28.55 21.2zM16 8.944a6.94 6.94 0 0 0-6.944 6.944c0 3.866 3.134 6.944 6.944 6.944s6.944-3.134 6.944-6.944c0-3.756-3.081-6.944-6.944-6.944zm0 11c-2.205 0-3.999-1.794-3.999-3.999s1.793-3.944 3.999-3.944 3.999 1.794 3.999 3.944-1.793 4-3.999 4z"/></symbol><symbol id="icon-moon-solid" viewBox="0 0 24 32"><path d="M13.969 2C6.25 2 0 8.269 0 16s6.25 14 13.969 14a13.92 13.92 0 0 0 9.738-3.962.998.998 0 0 0-.869-1.7c-.613.106-1.238.163-1.881.163-6.056 0-10.969-4.925-10.969-11 0-4.113 2.25-7.694 5.581-9.581a.998.998 0 0 0-.413-1.862c-.394-.031-.787-.05-1.188-.05z"/></symbol><symbol id="circled-c-48" viewBox="0 0 32 32"><path d="M11.467 3.4c-1.2.333-3.333 1.8-4.8 3.267C1.4 11.934 1.4 20.2 6.6 25.4c5.933 6 16.333 4.733 20.8-2.533 2.267-3.6 2.267-10.133 0-13.733-3.133-5.067-10.067-7.533-15.933-5.733zM20.2 5.6c2.933 1.2 6.333 5.2 6.867 8.067 1.667 9-6.933 16.267-15.267 12.733-7.067-2.933-9.2-11.867-4.267-17.533 3.533-4 8.133-5.2 12.667-3.267z"/><path d="M12.2 10.933c-1.6 1.4-1.867 2.133-1.867 5.067s.267 3.667 1.867 5.067c1 .867 2.667 1.6 3.667 1.6 2.133 0 4.8-1.667 4.8-3.067 0-1.2-1.133-1.2-2.4.067C15.934 21.934 12 19.667 12 16s3.933-5.933 6.267-3.667c1.267 1.267 2.4 1.267 2.4.067 0-1.4-2.667-3.067-4.8-3.067-1 0-2.667.733-3.667 1.6z"/></symbol><symbol id="icon-heart" viewBox="0 0 32 32"><path d="M23.6 2c-3.363 0-6.258 2.736-7.599 5.594C14.659 4.736 11.764 2 8.4 2 3.763 2 0 5.764 0 10.401c0 9.433 9.516 11.906 16.001 21.232C22.131 22.365 32 19.533 32 10.401 32 5.764 28.237 2 23.6 2z"/></symbol><symbol id="icon-film" viewBox="0 0 32 32"><path stroke-linejoin="round" stroke-linecap="round" stroke-width="2.667" d="M26.427 2.667H5.574a2.907 2.907 0 0 0-2.907 2.907v20.853a2.907 2.907 0 0 0 2.907 2.907h20.853a2.907 2.907 0 0 0 2.907-2.907V5.574a2.907 2.907 0 0 0-2.907-2.907zM9.333 2.667v26.667M22.667 2.667v26.667M2.667 16h26.667M2.667 9.333h6.667M2.667 22.667h6.667M22.667 22.667h6.667M22.667 9.333h6.667"/></symbol><symbol id="icon-search-2" viewBox="0 0 32 32"><path stroke-linejoin="round" stroke-linecap="round" stroke-width="2.667" d="M14.667 25.333c5.891 0 10.667-4.776 10.667-10.667S20.558 3.999 14.667 3.999 4 8.775 4 14.666s4.776 10.667 10.667 10.667zM28 28.001l-5.8-5.8"/></symbol><symbol id="icon-close" viewBox="0 0 32 32"><path stroke-width="2.133" d="m8.533 8.533 14.933 14.933M8.533 23.467 23.466 8.534"/></symbol><symbol id="icon-arrow-left" viewBox="0 0 32 32"><path stroke-linejoin="round" stroke-linecap="round" stroke-width="2.667" d="M25.333 16H6.666M16 25.333 6.667 16 16 6.667"/></symbol><symbol id="icon-arrow-right" viewBox="0 0 32 32"><path stroke-linejoin="round" stroke-linecap="round" stroke-width="2.667" d="M6.667 16h18.667M16 25.333 25.333 16 16 6.667"/></symbol><symbol id="icon-3-dots" viewBox="0 0 107 32"><path d="M17.25 5.333c2.833 0 5.021.813 6.562 2.438 1.542 1.583 2.313 3.583 2.313 6 0 2.375-.771 4.354-2.313 5.938-1.542 1.542-3.729 2.312-6.562 2.312-2.708 0-4.854-.771-6.438-2.312s-2.375-3.521-2.375-5.938.771-4.417 2.312-6c1.542-1.625 3.708-2.438 6.5-2.438zm35.75 0c2.833 0 5.021.813 6.562 2.438 1.542 1.583 2.313 3.583 2.313 6 0 2.375-.771 4.354-2.313 5.938-1.542 1.542-3.729 2.312-6.562 2.312-2.708 0-4.854-.771-6.438-2.312s-2.375-3.521-2.375-5.938.771-4.417 2.313-6c1.542-1.625 3.708-2.438 6.5-2.438zm35.75 0c2.833 0 5.021.813 6.563 2.438 1.542 1.583 2.312 3.583 2.312 6 0 2.375-.771 4.354-2.312 5.938-1.542 1.542-3.729 2.312-6.563 2.312-2.708 0-4.854-.771-6.437-2.312s-2.375-3.521-2.375-5.938.771-4.417 2.313-6c1.542-1.625 3.708-2.438 6.5-2.438z"/></symbol></defs></svg>