<svg aria-hidden="true" style="width:0;height:0;position:absolute;overflow:hidden" xmlns="http://www.w3.org/2000/svg"><defs><symbol id="icon-sun-solid" viewBox="0 0 32 32"><path d="M22.594.075c.313.131.538.412.6.744l1.244 6.744 6.744 1.238c.331.063.613.287.744.6s.094.669-.1.95l-3.894 5.65 3.894 5.644c.194.281.231.637.1.95s-.413.538-.744.6l-6.744 1.244-1.244 6.744c-.063.331-.288.613-.6.744s-.669.094-.95-.1L16 27.933l-5.644 3.894c-.281.194-.637.231-.95.1s-.537-.413-.6-.744l-1.244-6.744-6.744-1.244c-.331-.063-.613-.288-.744-.6s-.094-.669.1-.95l3.894-5.644-3.894-5.644c-.194-.281-.231-.637-.1-.95s.412-.537.744-.6l6.744-1.244L8.806.819c.063-.331.287-.613.6-.744s.669-.094.95.1L16 4.069 21.644.175a.993.993 0 0 1 .95-.1zM22 16c0 3.313-2.688 6-6 6s-6-2.688-6-6 2.688-6 6-6 6 2.688 6 6zm2 0c0-4.419-3.581-8-8-8s-8 3.581-8 8 3.581 8 8 8 8-3.581 8-8z"/></symbol><symbol id="icon-sun-regular" viewBox="0 0 32 32"><path d="m31.575 20.3-2.983-4.299 2.984-4.301c.46-.664.55-1.508.24-2.254a2.357 2.357 0 0 0-1.764-1.42l-5.149-.93-.931-5.151A2.353 2.353 0 0 0 22.554.181a2.374 2.374 0 0 0-2.258.24l-4.297 2.983-4.3-2.986A2.371 2.371 0 0 0 9.443.18a2.359 2.359 0 0 0-1.419 1.762l-.931 5.152-5.147.93A2.355 2.355 0 0 0 .18 9.449a2.35 2.35 0 0 0 .242 2.25l2.983 4.299-2.984 4.301a2.357 2.357 0 0 0-.24 2.254c.311.746.97 1.277 1.764 1.42l5.149.93.931 5.151a2.366 2.366 0 0 0 3.675 1.524l4.3-2.983 4.302 2.986c.404.276.873.42 1.342.42a2.359 2.359 0 0 0 2.329-1.944l.931-5.152 5.148-.93a2.354 2.354 0 0 0 1.766-1.422 2.335 2.335 0 0 0-.242-2.252zm-3.025.9-6.226 1.125-1.125 6.227L16 24.944l-5.2 3.606-1.125-6.227-6.226-1.125 3.607-5.254L3.452 10.8l6.226-1.125 1.125-6.227L16 7.056l5.197-3.609 1.126 6.229 6.226 1.125-3.605 5.143L28.55 21.2zM16 8.944a6.94 6.94 0 0 0-6.944 6.944c0 3.866 3.134 6.944 6.944 6.944s6.944-3.134 6.944-6.944c0-3.756-3.081-6.944-6.944-6.944zm0 11c-2.205 0-3.999-1.794-3.999-3.999s1.793-3.944 3.999-3.944 3.999 1.794 3.999 3.944-1.793 4-3.999 4z"/></symbol><symbol id="icon-moon-solid" viewBox="0 0 24 32"><path d="M13.969 2C6.25 2 0 8.269 0 16s6.25 14 13.969 14a13.92 13.92 0 0 0 9.738-3.962.998.998 0 0 0-.869-1.7c-.613.106-1.238.163-1.881.163-6.056 0-10.969-4.925-10.969-11 0-4.113 2.25-7.694 5.581-9.581a.998.998 0 0 0-.413-1.862c-.394-.031-.787-.05-1.188-.05z"/></symbol><symbol id="icon-heart" viewBox="0 0 32 32"><path d="M23.6 2c-3.363 0-6.258 2.736-7.599 5.594C14.659 4.736 11.764 2 8.4 2 3.763 2 0 5.764 0 10.401c0 9.433 9.516 11.906 16.001 21.232C22.131 22.365 32 19.533 32 10.401 32 5.764 28.237 2 23.6 2z"/></symbol><symbol id="logo" viewBox="0 0 32 32"><path fill="none" style="stroke:currentColor" stroke-linejoin="round" stroke-linecap="round" stroke-width="2.667" d="M26.427 2.667H5.574a2.907 2.907 0 0 0-2.907 2.907v20.853a2.907 2.907 0 0 0 2.907 2.907v0h20.853a2.907 2.907 0 0 0 2.907-2.907v0V5.574a2.907 2.907 0 0 0-2.907-2.907v0zm-17.094 0v26.667M22.667 2.667v26.667M2.667 16h26.667M2.667 9.333h6.667M2.667 22.667h6.667m13.333 0h6.667M22.667 9.333h6.667"/></symbol><symbol id="icon-search" viewBox="0 0 28 28"><path fill="none" style="stroke:currentColor" stroke-linejoin="round" stroke-linecap="round" stroke-width="2.667" d="M14.667 25.333c5.891 0 10.667-4.776 10.667-10.667S20.558 3.999 14.667 3.999v0C8.776 3.999 4 8.775 4 14.666s4.776 10.667 10.667 10.667v0zM28 28l-5.8-5.8"/></symbol><symbol id="linkedin" viewBox="0 0 32 32"><path d="M31.992 32v-.001H32V20.263c0-5.741-1.236-10.164-7.948-10.164-3.227 0-5.392 1.771-6.276 3.449h-.093v-2.913h-6.364v21.364h6.627V21.42c0-2.785.528-5.479 3.977-5.479 3.399 0 3.449 3.179 3.449 5.657v10.401h6.62zM.528 10.636h6.635V32H.528V10.636zM3.843 0C1.722 0 0 1.721 0 3.843s1.721 3.879 3.843 3.879c2.121 0 3.843-1.757 3.843-3.879A3.846 3.846 0 0 0 3.843 0z"/></symbol><symbol id="fecebook" viewBox="0 0 16 32"><path d="M14.143 15.972h-4.034v14.865H3.997V15.972H1.09v-5.224h2.907V7.367c0-2.418 1.142-6.203 6.166-6.203l4.527.019v5.071h-3.285c-.539 0-1.296.271-1.296 1.424v3.075h4.567l-.534 5.219z"/></symbol><symbol id="github" viewBox="0 0 32 32"><path d="M16 0C7.212 0 0 7.212 0 16c0 7.499 5.262 14.312 12.25 16v-5.293c-.692.152-1.33.156-2.034-.052-.946-.279-1.714-.909-2.284-1.869-.364-.613-1.008-1.278-1.68-1.23l-.165-1.868c1.453-.124 2.711.886 3.457 2.14.332.558.713.884 1.203 1.029.473.14.982.072 1.574-.137.149-1.186.692-1.63 1.102-2.255v-.001c-4.167-.622-5.828-2.832-6.488-4.578-.874-2.317-.405-5.212 1.14-7.041.03-.036.084-.129.063-.194-.708-2.139.155-3.909.187-4.097.817.242.95-.243 3.551 1.337l.449.27c.188.112.129.048.317.034A13.544 13.544 0 0 1 16 7.723c1.136.015 2.273.178 3.404.484l.145.015c-.013-.002.04-.009.127-.062 3.248-1.968 3.132-1.324 4.003-1.608.032.188.883 1.987.182 4.099-.095.291 2.816 2.956 1.203 7.235-.659 1.746-2.32 3.957-6.487 4.578v.001c.534.814 1.176 1.247 1.173 2.927V32C26.738 30.312 32 23.499 32 16c0-8.788-7.212-16-16-16z"/></symbol><symbol id="close-button" viewBox="0 0 32 32"><path d="m17.253 16 7.369-7.369a.886.886 0 0 0-.047-1.207.89.89 0 0 0-1.206-.047L16 14.746 8.631 7.368A.892.892 0 0 0 7.369 8.63l7.378 7.369-7.378 7.369a.891.891 0 0 0-.05 1.304.89.89 0 0 0 1.304-.051l7.378-7.369 7.369 7.369a.885.885 0 0 0 1.206-.047.89.89 0 0 0 .047-1.206l-7.369-7.369z"/></symbol><symbol id="icon-arrow-scroll" viewBox="0 0 32 32"><path d="m4.6 12.6 10-10c.8-.8 2-.8 2.8 0l10 10c.8.8.8 2 0 2.8s-2 .8-2.8 0L18 8.8V28c0 1.1-.9 2-2 2s-2-.9-2-2V8.8l-6.6 6.6c-.4.4-.9.6-1.4.6s-1-.2-1.4-.6c-.8-.8-.8-2 0-2.8z"/></symbol></defs></svg>