<svg aria-hidden="true" style="position: absolute; width: 0; height: 0; overflow: hidden;" version="1.1" xmlns="http://www.w3.org/2000/svg" xmlns:xlink="http://www.w3.org/1999/xlink">
<defs>
<symbol id="icon-sun-solid" viewBox="0 0 32 32">
<path d="M22.594 0.075c0.313 0.131 0.538 0.412 0.6 0.744l1.244 6.744 6.744 1.238c0.331 0.063 0.613 0.287 0.744 0.6s0.094 0.669-0.1 0.95l-3.894 5.65 3.894 5.644c0.194 0.281 0.231 0.637 0.1 0.95s-0.413 0.538-0.744 0.6l-6.744 1.244-1.244 6.744c-0.063 0.331-0.288 0.613-0.6 0.744s-0.669 0.094-0.95-0.1l-5.644-3.894-5.644 3.894c-0.281 0.194-0.637 0.231-0.95 0.1s-0.537-0.413-0.6-0.744l-1.244-6.744-6.744-1.244c-0.331-0.063-0.613-0.288-0.744-0.6s-0.094-0.669 0.1-0.95l3.894-5.644-3.894-5.644c-0.194-0.281-0.231-0.637-0.1-0.95s0.412-0.537 0.744-0.6l6.744-1.244 1.244-6.744c0.063-0.331 0.287-0.613 0.6-0.744s0.669-0.094 0.95 0.1l5.644 3.894 5.644-3.894c0.281-0.194 0.637-0.231 0.95-0.1zM22 16c0 3.313-2.688 6-6 6s-6-2.688-6-6 2.688-6 6-6 6 2.688 6 6zM24 16c0-4.419-3.581-8-8-8s-8 3.581-8 8 3.581 8 8 8 8-3.581 8-8z"></path>
</symbol>
<symbol id="icon-sun-regular" viewBox="0 0 32 32">
<path d="M31.575 20.3l-2.983-4.299 2.984-4.301c0.46-0.664 0.55-1.508 0.24-2.254-0.311-0.746-0.97-1.277-1.764-1.42l-5.149-0.93-0.931-5.151c-0.143-0.795-0.672-1.453-1.418-1.764-0.748-0.308-1.589-0.219-2.258 0.24l-4.297 2.983-4.3-2.986c-0.669-0.457-1.506-0.547-2.256-0.238-0.745 0.311-1.275 0.969-1.419 1.762l-0.931 5.152-5.147 0.93c-0.796 0.144-1.456 0.675-1.766 1.425-0.309 0.744-0.219 1.588 0.242 2.25l2.983 4.299-2.984 4.301c-0.46 0.664-0.55 1.508-0.24 2.254 0.311 0.746 0.97 1.277 1.764 1.42l5.149 0.93 0.931 5.151c0.144 0.795 0.674 1.453 1.419 1.764 0.747 0.307 1.59 0.221 2.256-0.24l4.3-2.983 4.302 2.986c0.404 0.276 0.873 0.42 1.342 0.42 0.307 0 0.616-0.061 0.91-0.182 0.745-0.311 1.275-0.969 1.419-1.762l0.931-5.152 5.148-0.93c0.796-0.143 1.456-0.674 1.766-1.422 0.314-0.746 0.221-1.59-0.242-2.252zM28.55 21.2l-6.226 1.125-1.125 6.227-5.199-3.608-5.2 3.606-1.125-6.227-6.226-1.125 3.607-5.254-3.604-5.144 6.226-1.125 1.125-6.227 5.197 3.608 5.197-3.609 1.126 6.229 6.226 1.125-3.605 5.143 3.606 5.256zM16 8.944c-3.866 0-6.944 3.134-6.944 6.944 0 3.866 3.134 6.944 6.944 6.944s6.944-3.134 6.944-6.944c0-3.756-3.081-6.944-6.944-6.944zM16 19.944c-2.205 0-3.999-1.794-3.999-3.999s1.793-3.944 3.999-3.944 3.999 1.794 3.999 3.944-1.793 4-3.999 4z"></path>
</symbol>
<symbol id="icon-moon-solid" viewBox="0 0 24 32">
<path d="M13.969 2c-7.719 0-13.969 6.269-13.969 14s6.25 14 13.969 14c3.788 0 7.219-1.512 9.738-3.962 0.313-0.306 0.394-0.781 0.194-1.169s-0.631-0.606-1.063-0.531c-0.613 0.106-1.238 0.163-1.881 0.163-6.056 0-10.969-4.925-10.969-11 0-4.113 2.25-7.694 5.581-9.581 0.381-0.219 0.575-0.656 0.481-1.081s-0.456-0.744-0.894-0.781c-0.394-0.031-0.787-0.050-1.188-0.050z"></path>
</symbol>
<symbol id="icon-heart" viewBox="0 0 32 32">
<path d="M23.6 2c-3.363 0-6.258 2.736-7.599 5.594-1.342-2.858-4.237-5.594-7.601-5.594-4.637 0-8.4 3.764-8.4 8.401 0 9.433 9.516 11.906 16.001 21.232 6.13-9.268 15.999-12.1 15.999-21.232 0-4.637-3.763-8.401-8.4-8.401z"></path>
</symbol>
<symbol id="logo" viewBox="0 0 32 32">
<path fill="none" style="stroke: currentColor" stroke-linejoin="round" stroke-linecap="round" stroke-miterlimit="4" stroke-width="2.6667" d="M26.427 2.667h-20.853c-1.605 0-2.907 1.301-2.907 2.907v0 20.853c0 1.605 1.301 2.907 2.907 2.907v0h20.853c1.605 0 2.907-1.301 2.907-2.907v0-20.853c0-1.605-1.301-2.907-2.907-2.907v0zM9.333 2.667v26.667M22.667 2.667v26.667M2.667 16h26.667M2.667 9.333h6.667M2.667 22.667h6.667M22.667 22.667h6.667M22.667 9.333h6.667"></path>
</symbol>
<symbol id="icon-search" viewBox="0 0 28 28">
<path fill="none" style="stroke: currentColor" stroke-linejoin="round" stroke-linecap="round" stroke-miterlimit="4" stroke-width="2.6667" d="M14.667 25.333c5.891 0 10.667-4.776 10.667-10.667s-4.776-10.667-10.667-10.667v0c-5.891 0-10.667 4.776-10.667 10.667s4.776 10.667 10.667 10.667v0zM28 28l-5.8-5.8"></path>
</symbol>

<!-- додано для модалки в футері -->
<symbol id="linkedin" viewBox="0 0 32 32">
<path  d="M31.992 32v-0.001h0.008v-11.736c0-5.741-1.236-10.164-7.948-10.164-3.227 0-5.392 1.771-6.276 3.449h-0.093v-2.913h-6.364v21.364h6.627v-10.579c0-2.785 0.528-5.479 3.977-5.479 3.399 0 3.449 3.179 3.449 5.657v10.401h6.62z"></path>
<path  d="M0.528 10.636h6.635v21.364h-6.635v-21.364z"></path>
<path  d="M3.843 0c-2.121 0-3.843 1.721-3.843 3.843s1.721 3.879 3.843 3.879c2.121 0 3.843-1.757 3.843-3.879-0.001-2.121-1.723-3.843-3.843-3.843v0z"></path>
</symbol>
<symbol id="fecebook" viewBox="0 0 16 32">
<path  d="M14.143 15.972h-4.034v14.865h-6.112v-14.865h-2.907v-5.224h2.907v-3.381c0-2.418 1.142-6.203 6.166-6.203l4.527 0.019v5.071h-3.285c-0.539 0-1.296 0.271-1.296 1.424v3.075h4.567l-0.534 5.219z"></path>
</symbol>
<symbol id="github" viewBox="0 0 32 32">
<path  d="M16 0c-8.788 0-16 7.212-16 16 0 7.499 5.262 14.312 12.25 16v-5.293c-0.692 0.152-1.33 0.156-2.034-0.052-0.946-0.279-1.714-0.909-2.284-1.869-0.364-0.613-1.008-1.278-1.68-1.23l-0.165-1.868c1.453-0.124 2.711 0.886 3.457 2.14 0.332 0.558 0.713 0.884 1.203 1.029 0.473 0.14 0.982 0.072 1.574-0.137 0.149-1.186 0.692-1.63 1.102-2.255v-0.001c-4.167-0.622-5.828-2.832-6.488-4.578-0.874-2.317-0.405-5.212 1.14-7.041 0.030-0.036 0.084-0.129 0.063-0.194-0.708-2.139 0.155-3.909 0.187-4.097 0.817 0.242 0.95-0.243 3.551 1.337l0.449 0.27c0.188 0.112 0.129 0.048 0.317 0.034 1.086-0.295 2.23-0.458 3.358-0.472 1.136 0.015 2.273 0.178 3.404 0.484l0.145 0.015c-0.013-0.002 0.040-0.009 0.127-0.062 3.248-1.968 3.132-1.324 4.003-1.608 0.032 0.188 0.883 1.987 0.182 4.099-0.095 0.291 2.816 2.956 1.203 7.235-0.659 1.746-2.32 3.957-6.487 4.578v0.001c0.534 0.814 1.176 1.247 1.173 2.927v6.608c6.988-1.688 12.25-8.501 12.25-16 0-8.788-7.212-16-16-16v0z"></path>
</symbol>
<symbol id="close-button" viewBox="0 0 32 32">
<path d="M17.253 16l7.369-7.369c0.146-0.17 0.222-0.389 0.213-0.613s-0.101-0.436-0.26-0.594c-0.158-0.158-0.37-0.251-0.594-0.26s-0.442 0.067-0.612 0.213l-7.369 7.369-7.369-7.378c-0.167-0.167-0.394-0.261-0.631-0.261s-0.464 0.094-0.631 0.261c-0.167 0.167-0.261 0.394-0.261 0.631s0.094 0.464 0.261 0.631l7.378 7.369-7.378 7.369c-0.093 0.080-0.169 0.178-0.222 0.288s-0.083 0.23-0.088 0.353c-0.005 0.123 0.016 0.245 0.061 0.359s0.112 0.218 0.199 0.304c0.087 0.087 0.19 0.154 0.304 0.199s0.236 0.065 0.359 0.060c0.122-0.005 0.243-0.035 0.353-0.088s0.208-0.129 0.288-0.222l7.378-7.369 7.369 7.369c0.17 0.146 0.389 0.222 0.612 0.213s0.436-0.101 0.594-0.26c0.158-0.158 0.251-0.37 0.26-0.594s-0.067-0.442-0.213-0.612l-7.369-7.369z"></path>
</symbol>
<!-- /додано для модалки в футері -->

<symbol id="icon-arrow-scroll" viewBox="0 0 32 32">
<path d="M4.6 12.6l10-10c0.8-0.8 2-0.8 2.8 0l10 10c0.8 0.8 0.8 2 0 2.8s-2 0.8-2.8 0l-6.6-6.6v19.2c0 1.1-0.9 2-2 2s-2-0.9-2-2v-19.2l-6.6 6.6c-0.4 0.4-0.9 0.6-1.4 0.6s-1-0.2-1.4-0.6c-0.8-0.8-0.8-2 0-2.8z"></path>
</symbol>
<!-- /додано для скролу -->

</defs>
</svg>
