<svg aria-hidden="true" style="position: absolute; width: 0; height: 0; overflow: hidden;" version="1.1" xmlns="http://www.w3.org/2000/svg" xmlns:xlink="http://www.w3.org/1999/xlink">
<defs>
<symbol id="icon-sun-solid" viewBox="0 0 32 32">
<path d="M22.594 0.075c0.313 0.131 0.538 0.412 0.6 0.744l1.244 6.744 6.744 1.238c0.331 0.063 0.613 0.287 0.744 0.6s0.094 0.669-0.1 0.95l-3.894 5.65 3.894 5.644c0.194 0.281 0.231 0.637 0.1 0.95s-0.413 0.538-0.744 0.6l-6.744 1.244-1.244 6.744c-0.063 0.331-0.288 0.613-0.6 0.744s-0.669 0.094-0.95-0.1l-5.644-3.894-5.644 3.894c-0.281 0.194-0.637 0.231-0.95 0.1s-0.537-0.413-0.6-0.744l-1.244-6.744-6.744-1.244c-0.331-0.063-0.613-0.288-0.744-0.6s-0.094-0.669 0.1-0.95l3.894-5.644-3.894-5.644c-0.194-0.281-0.231-0.637-0.1-0.95s0.412-0.537 0.744-0.6l6.744-1.244 1.244-6.744c0.063-0.331 0.287-0.613 0.6-0.744s0.669-0.094 0.95 0.1l5.644 3.894 5.644-3.894c0.281-0.194 0.637-0.231 0.95-0.1zM22 16c0 3.313-2.688 6-6 6s-6-2.688-6-6 2.688-6 6-6 6 2.688 6 6zM24 16c0-4.419-3.581-8-8-8s-8 3.581-8 8 3.581 8 8 8 8-3.581 8-8z"></path>
</symbol>
<symbol id="icon-sun-regular" viewBox="0 0 32 32">
<path d="M31.575 20.3l-2.983-4.299 2.984-4.301c0.46-0.664 0.55-1.508 0.24-2.254-0.311-0.746-0.97-1.277-1.764-1.42l-5.149-0.93-0.931-5.151c-0.143-0.795-0.672-1.453-1.418-1.764-0.748-0.308-1.589-0.219-2.258 0.24l-4.297 2.983-4.3-2.986c-0.669-0.457-1.506-0.547-2.256-0.238-0.745 0.311-1.275 0.969-1.419 1.762l-0.931 5.152-5.147 0.93c-0.796 0.144-1.456 0.675-1.766 1.425-0.309 0.744-0.219 1.588 0.242 2.25l2.983 4.299-2.984 4.301c-0.46 0.664-0.55 1.508-0.24 2.254 0.311 0.746 0.97 1.277 1.764 1.42l5.149 0.93 0.931 5.151c0.144 0.795 0.674 1.453 1.419 1.764 0.747 0.307 1.59 0.221 2.256-0.24l4.3-2.983 4.302 2.986c0.404 0.276 0.873 0.42 1.342 0.42 0.307 0 0.616-0.061 0.91-0.182 0.745-0.311 1.275-0.969 1.419-1.762l0.931-5.152 5.148-0.93c0.796-0.143 1.456-0.674 1.766-1.422 0.314-0.746 0.221-1.59-0.242-2.252zM28.55 21.2l-6.226 1.125-1.125 6.227-5.199-3.608-5.2 3.606-1.125-6.227-6.226-1.125 3.607-5.254-3.604-5.144 6.226-1.125 1.125-6.227 5.197 3.608 5.197-3.609 1.126 6.229 6.226 1.125-3.605 5.143 3.606 5.256zM16 8.944c-3.866 0-6.944 3.134-6.944 6.944 0 3.866 3.134 6.944 6.944 6.944s6.944-3.134 6.944-6.944c0-3.756-3.081-6.944-6.944-6.944zM16 19.944c-2.205 0-3.999-1.794-3.999-3.999s1.793-3.944 3.999-3.944 3.999 1.794 3.999 3.944-1.793 4-3.999 4z"></path>
</symbol>
<symbol id="icon-moon-solid" viewBox="0 0 24 32">
<path d="M13.969 2c-7.719 0-13.969 6.269-13.969 14s6.25 14 13.969 14c3.788 0 7.219-1.512 9.738-3.962 0.313-0.306 0.394-0.781 0.194-1.169s-0.631-0.606-1.063-0.531c-0.613 0.106-1.238 0.163-1.881 0.163-6.056 0-10.969-4.925-10.969-11 0-4.113 2.25-7.694 5.581-9.581 0.381-0.219 0.575-0.656 0.481-1.081s-0.456-0.744-0.894-0.781c-0.394-0.031-0.787-0.050-1.188-0.050z"></path>
</symbol>
<symbol id="circled-c-48" viewBox="0 0 32 32">
<path d="M11.467 3.4c-1.2 0.333-3.333 1.8-4.8 3.267-5.267 5.267-5.267 13.533-0.067 18.733 5.933 6 16.333 4.733 20.8-2.533 2.267-3.6 2.267-10.133 0-13.733-3.133-5.067-10.067-7.533-15.933-5.733zM20.2 5.6c2.933 1.2 6.333 5.2 6.867 8.067 1.667 9-6.933 16.267-15.267 12.733-7.067-2.933-9.2-11.867-4.267-17.533 3.533-4 8.133-5.2 12.667-3.267z"></path>
<path d="M12.2 10.933c-1.6 1.4-1.867 2.133-1.867 5.067s0.267 3.667 1.867 5.067c1 0.867 2.667 1.6 3.667 1.6 2.133 0 4.8-1.667 4.8-3.067 0-1.2-1.133-1.2-2.4 0.067-2.333 2.267-6.267 0-6.267-3.667s3.933-5.933 6.267-3.667c1.267 1.267 2.4 1.267 2.4 0.067 0-1.4-2.667-3.067-4.8-3.067-1 0-2.667 0.733-3.667 1.6z"></path>
</symbol>
<symbol id="icon-heart" viewBox="0 0 32 32">
<path d="M23.6 2c-3.363 0-6.258 2.736-7.599 5.594-1.342-2.858-4.237-5.594-7.601-5.594-4.637 0-8.4 3.764-8.4 8.401 0 9.433 9.516 11.906 16.001 21.232 6.13-9.268 15.999-12.1 15.999-21.232 0-4.637-3.763-8.401-8.4-8.401z"></path>
</symbol>
<symbol id="icon-film" viewBox="0 0 32 32">
<path stroke-linejoin="round" stroke-linecap="round" stroke-miterlimit="4" stroke-width="2.6667" d="M26.427 2.667h-20.853c-1.605 0-2.907 1.301-2.907 2.907v20.853c0 1.605 1.301 2.907 2.907 2.907h20.853c1.605 0 2.907-1.301 2.907-2.907v-20.853c0-1.605-1.301-2.907-2.907-2.907z"></path>
<path stroke-linejoin="round" stroke-linecap="round" stroke-miterlimit="4" stroke-width="2.6667" d="M9.333 2.667v26.667"></path>
<path stroke-linejoin="round" stroke-linecap="round" stroke-miterlimit="4" stroke-width="2.6667" d="M22.667 2.667v26.667"></path>
<path stroke-linejoin="round" stroke-linecap="round" stroke-miterlimit="4" stroke-width="2.6667" d="M2.667 16h26.667"></path>
<path stroke-linejoin="round" stroke-linecap="round" stroke-miterlimit="4" stroke-width="2.6667" d="M2.667 9.333h6.667"></path>
<path stroke-linejoin="round" stroke-linecap="round" stroke-miterlimit="4" stroke-width="2.6667" d="M2.667 22.667h6.667"></path>
<path stroke-linejoin="round" stroke-linecap="round" stroke-miterlimit="4" stroke-width="2.6667" d="M22.667 22.667h6.667"></path>
<path stroke-linejoin="round" stroke-linecap="round" stroke-miterlimit="4" stroke-width="2.6667" d="M22.667 9.333h6.667"></path>
</symbol>
<symbol id="icon-search-2" viewBox="0 0 32 32">
<path stroke-linejoin="round" stroke-linecap="round" stroke-miterlimit="4" stroke-width="2.6667" d="M14.667 25.333c5.891 0 10.667-4.776 10.667-10.667s-4.776-10.667-10.667-10.667c-5.891 0-10.667 4.776-10.667 10.667s4.776 10.667 10.667 10.667z"></path>
<path stroke-linejoin="round" stroke-linecap="round" stroke-miterlimit="4" stroke-width="2.6667" d="M28 28.001l-5.8-5.8"></path>
</symbol>
<symbol id="icon-close" viewBox="0 0 32 32">
<path stroke-linejoin="miter" stroke-linecap="butt" stroke-miterlimit="4" stroke-width="2.1333" d="M8.533 8.533l14.933 14.933"></path>
<path stroke-linejoin="miter" stroke-linecap="butt" stroke-miterlimit="4" stroke-width="2.1333" d="M8.533 23.467l14.933-14.933"></path>
</symbol>
<symbol id="icon-arrow-left" viewBox="0 0 32 32">
<path stroke-linejoin="round" stroke-linecap="round" stroke-miterlimit="4" stroke-width="2.6667" d="M25.333 16h-18.667"></path>
<path stroke-linejoin="round" stroke-linecap="round" stroke-miterlimit="4" stroke-width="2.6667" d="M16 25.333l-9.333-9.333 9.333-9.333"></path>
</symbol>
<symbol id="icon-arrow-right" viewBox="0 0 32 32">
<path stroke-linejoin="round" stroke-linecap="round" stroke-miterlimit="4" stroke-width="2.6667" d="M6.667 16h18.667"></path>
<path stroke-linejoin="round" stroke-linecap="round" stroke-miterlimit="4" stroke-width="2.6667" d="M16 25.333l9.333-9.333-9.333-9.333"></path>
</symbol>
<symbol id="icon-3-dots" viewBox="0 0 107 32">
<path d="M17.25 5.333c2.833 0 5.021 0.813 6.562 2.438 1.542 1.583 2.313 3.583 2.313 6 0 2.375-0.771 4.354-2.313 5.938-1.542 1.542-3.729 2.312-6.562 2.312-2.708 0-4.854-0.771-6.438-2.312s-2.375-3.521-2.375-5.938c0-2.417 0.771-4.417 2.312-6 1.542-1.625 3.708-2.438 6.5-2.438zM53 5.333c2.833 0 5.021 0.813 6.562 2.438 1.542 1.583 2.313 3.583 2.313 6 0 2.375-0.771 4.354-2.313 5.938-1.542 1.542-3.729 2.312-6.562 2.312-2.708 0-4.854-0.771-6.438-2.312s-2.375-3.521-2.375-5.938c0-2.417 0.771-4.417 2.313-6 1.542-1.625 3.708-2.438 6.5-2.438zM88.75 5.333c2.833 0 5.021 0.813 6.563 2.438 1.542 1.583 2.312 3.583 2.312 6 0 2.375-0.771 4.354-2.312 5.938-1.542 1.542-3.729 2.312-6.563 2.312-2.708 0-4.854-0.771-6.437-2.312s-2.375-3.521-2.375-5.938c0-2.417 0.771-4.417 2.313-6 1.542-1.625 3.708-2.438 6.5-2.438z"></path>
</symbol>
</defs>
</svg>
